<?xml version="1.0" encoding="UTF-8"?>
<svg width="245px" height="245px" viewBox="0 0 245 245" version="1.1" xmlns="http://www.w3.org/2000/svg" xmlns:xlink="http://www.w3.org/1999/xlink">
    <!-- Generator: Sketch 59.1 (86144) - https://sketch.com -->
    <title>Logo-Messenger </title>
    <desc>Created with Sketch.</desc>
    <g id="Logo-Messenger" stroke="none" stroke-width="1" fill="none" fill-rule="evenodd">
        <g transform="translate(4.000000, 2.500000)" fill="#FFFFFF" id="Fill-1">
            <path d="M191.096842,88.8510257 L156.170526,143.946328 C150.682105,152.384348 138.208421,154.866118 130.225263,148.909869 L102.284211,128.062998 C99.7894737,126.077581 96.2968421,126.077581 93.8021053,128.062998 L56.3810526,156.35518 C51.3915789,160.326013 44.9052632,153.87341 48.3978947,148.909869 L48.3978947,148.909869 L83.8231579,93.8145665 C89.3115789,85.3765472 101.785263,82.8947768 109.768421,88.8510257 L137.709474,109.697897 C140.204211,111.683313 143.696842,111.683313 146.191579,109.697897 L183.612632,81.4057145 C187.604211,77.931236 194.589474,83.8874849 191.096842,88.8510257 M119.248421,0.5 C51.8905263,0.5 0,49.6390536 0,115.654146 C0,149.902577 14.4694737,179.683822 37.4210526,201.027047 C39.4168421,202.516109 40.4147368,204.99788 40.4147368,207.976004 L40.9136842,229.319229 C41.4126316,236.268187 47.8989474,240.239019 53.8863158,237.757249 L77.3368421,227.333813 C79.3326316,226.341105 81.3284211,226.341105 83.3242105,226.837459 C93.8021053,229.815584 105.776842,231.304646 117.751579,231.304646 C185.109474,231.304646 237,182.165592 237,116.1505 C237,50.1354077 186.606316,0.5 119.248421,0.5"></path>
        </g>
    </g>
</svg>